<?xml version="1.0" encoding="UTF-8" standalone="no"?><svg xmlns="http://www.w3.org/2000/svg" xmlns:xlink="http://www.w3.org/1999/xlink" contentScriptType="application/ecmascript" contentStyleType="text/css" height="706px" preserveAspectRatio="none" style="width:1132px;height:706px;" version="1.1" viewBox="0 0 1132 706" width="1132px" zoomAndPan="magnify"><defs><filter height="300%" id="f1nln10oulr97o" width="300%" x="-1" y="-1"><feGaussianBlur result="blurOut" stdDeviation="2.0"/><feColorMatrix in="blurOut" result="blurOut2" type="matrix" values="0 0 0 0 0 0 0 0 0 0 0 0 0 0 0 0 0 0 .4 0"/><feOffset dx="4.0" dy="4.0" in="blurOut2" result="blurOut3"/><feBlend in="SourceGraphic" in2="blurOut3" mode="normal"/></filter></defs><g><!--MD5=[c23c53dfca18c97704152f5fda5f5931]
cluster pd--><polygon fill="#FFFFFF" filter="url(#f1nln10oulr97o)" points="403,575,429,575,436,597.2969,643,597.2969,643,658,403,658,403,575" style="stroke: #000000; stroke-width: 1.5;"/><line style="stroke: #000000; stroke-width: 1.5;" x1="403" x2="436" y1="597.2969" y2="597.2969"/><text fill="#000000" font-family="sans-serif" font-size="14" font-weight="bold" lengthAdjust="spacingAndGlyphs" textLength="20" x="407" y="589.9951">pd</text><!--MD5=[3baab3a19b241b3c0b643b1f6af1261b]
cluster re--><polygon fill="#FFFFFF" filter="url(#f1nln10oulr97o)" points="306,289.5,329,289.5,336,311.7969,418,311.7969,418,372.5,306,372.5,306,289.5" style="stroke: #000000; stroke-width: 1.5;"/><line style="stroke: #000000; stroke-width: 1.5;" x1="306" x2="336" y1="311.7969" y2="311.7969"/><text fill="#000000" font-family="sans-serif" font-size="14" font-weight="bold" lengthAdjust="spacingAndGlyphs" textLength="17" x="310" y="304.4951">re</text><!--MD5=[017fe6bc143c9ef60bb5af37eb87776a]
class pd.Series--><rect fill="#FEFECE" filter="url(#f1nln10oulr97o)" height="32" id="pd.Series" style="stroke: #A80036; stroke-width: 1.5;" width="71" x="419.5" y="610"/><ellipse cx="434.5" cy="626" fill="#ADD1B2" rx="11" ry="11" style="stroke: #A80036; stroke-width: 1.0;"/><path d="M437.4688,631.6406 Q436.8906,631.9375 436.25,632.0781 Q435.6094,632.2344 434.9063,632.2344 Q432.4063,632.2344 431.0781,630.5938 Q429.7656,628.9375 429.7656,625.8125 Q429.7656,622.6875 431.0781,621.0313 Q432.4063,619.375 434.9063,619.375 Q435.6094,619.375 436.25,619.5313 Q436.9063,619.6875 437.4688,619.9844 L437.4688,622.7031 Q436.8438,622.125 436.25,621.8594 Q435.6563,621.5781 435.0313,621.5781 Q433.6875,621.5781 433,622.6563 Q432.3125,623.7188 432.3125,625.8125 Q432.3125,627.9063 433,628.9844 Q433.6875,630.0469 435.0313,630.0469 Q435.6563,630.0469 436.25,629.7813 Q436.8438,629.5 437.4688,628.9219 L437.4688,631.6406 Z "/><text fill="#000000" font-family="sans-serif" font-size="12" lengthAdjust="spacingAndGlyphs" textLength="39" x="448.5" y="630.1543">Series</text><!--MD5=[f99c4367c453e5fe9db9cf62c28422b8]
class pd.DataFrame--><rect fill="#FEFECE" filter="url(#f1nln10oulr97o)" height="32" id="pd.DataFrame" style="stroke: #A80036; stroke-width: 1.5;" width="101" x="525.5" y="610"/><ellipse cx="540.5" cy="626" fill="#ADD1B2" rx="11" ry="11" style="stroke: #A80036; stroke-width: 1.0;"/><path d="M543.4688,631.6406 Q542.8906,631.9375 542.25,632.0781 Q541.6094,632.2344 540.9063,632.2344 Q538.4063,632.2344 537.0781,630.5938 Q535.7656,628.9375 535.7656,625.8125 Q535.7656,622.6875 537.0781,621.0313 Q538.4063,619.375 540.9063,619.375 Q541.6094,619.375 542.25,619.5313 Q542.9063,619.6875 543.4688,619.9844 L543.4688,622.7031 Q542.8438,622.125 542.25,621.8594 Q541.6563,621.5781 541.0313,621.5781 Q539.6875,621.5781 539,622.6563 Q538.3125,623.7188 538.3125,625.8125 Q538.3125,627.9063 539,628.9844 Q539.6875,630.0469 541.0313,630.0469 Q541.6563,630.0469 542.25,629.7813 Q542.8438,629.5 543.4688,628.9219 L543.4688,631.6406 Z "/><text fill="#000000" font-family="sans-serif" font-size="12" lengthAdjust="spacingAndGlyphs" textLength="69" x="554.5" y="630.1543">DataFrame</text><!--MD5=[77b21b474d767d5512f17c2fd6dc9020]
class re.compile--><rect fill="#FEFECE" filter="url(#f1nln10oulr97o)" height="32" id="re.compile" style="stroke: #A80036; stroke-width: 1.5;" width="80" x="322" y="324.5"/><ellipse cx="337" cy="340.5" fill="#ADD1B2" rx="11" ry="11" style="stroke: #A80036; stroke-width: 1.0;"/><path d="M339.9688,346.1406 Q339.3906,346.4375 338.75,346.5781 Q338.1094,346.7344 337.4063,346.7344 Q334.9063,346.7344 333.5781,345.0938 Q332.2656,343.4375 332.2656,340.3125 Q332.2656,337.1875 333.5781,335.5313 Q334.9063,333.875 337.4063,333.875 Q338.1094,333.875 338.75,334.0313 Q339.4063,334.1875 339.9688,334.4844 L339.9688,337.2031 Q339.3438,336.625 338.75,336.3594 Q338.1563,336.0781 337.5313,336.0781 Q336.1875,336.0781 335.5,337.1563 Q334.8125,338.2188 334.8125,340.3125 Q334.8125,342.4063 335.5,343.4844 Q336.1875,344.5469 337.5313,344.5469 Q338.1563,344.5469 338.75,344.2813 Q339.3438,344 339.9688,343.4219 L339.9688,346.1406 Z "/><text fill="#000000" font-family="sans-serif" font-size="12" lengthAdjust="spacingAndGlyphs" textLength="48" x="351" y="344.6543">compile</text><!--MD5=[61511f38d1f2cbd915a3e933561a1607]
class Hypothesis--><rect fill="#FEFECE" filter="url(#f1nln10oulr97o)" height="316.8984" id="Hypothesis" style="stroke: #A80036; stroke-width: 1.5;" width="203" x="83.5" y="182"/><ellipse cx="146.25" cy="198" fill="#ADD1B2" rx="11" ry="11" style="stroke: #A80036; stroke-width: 1.0;"/><path d="M149.2188,203.6406 Q148.6406,203.9375 148,204.0781 Q147.3594,204.2344 146.6563,204.2344 Q144.1563,204.2344 142.8281,202.5938 Q141.5156,200.9375 141.5156,197.8125 Q141.5156,194.6875 142.8281,193.0313 Q144.1563,191.375 146.6563,191.375 Q147.3594,191.375 148,191.5313 Q148.6563,191.6875 149.2188,191.9844 L149.2188,194.7031 Q148.5938,194.125 148,193.8594 Q147.4063,193.5781 146.7813,193.5781 Q145.4375,193.5781 144.75,194.6563 Q144.0625,195.7188 144.0625,197.8125 Q144.0625,199.9063 144.75,200.9844 Q145.4375,202.0469 146.7813,202.0469 Q147.4063,202.0469 148,201.7813 Q148.5938,201.5 149.2188,200.9219 L149.2188,203.6406 Z "/><text fill="#000000" font-family="sans-serif" font-size="12" lengthAdjust="spacingAndGlyphs" textLength="69" x="166.75" y="202.1543">Hypothesis</text><line style="stroke: #A80036; stroke-width: 1.5;" x1="84.5" x2="285.5" y1="214" y2="214"/><text fill="#000000" font-family="sans-serif" font-size="11" lengthAdjust="spacingAndGlyphs" textLength="53" x="89.5" y="228.2104">RIVM_URL</text><text fill="#000000" font-family="sans-serif" font-size="11" lengthAdjust="spacingAndGlyphs" textLength="104" x="89.5" y="241.0151">_required_params</text><text fill="#000000" font-family="sans-serif" font-size="11" lengthAdjust="spacingAndGlyphs" textLength="114" x="89.5" y="253.8198">all_possible_actions</text><text fill="#000000" font-family="sans-serif" font-size="11" lengthAdjust="spacingAndGlyphs" textLength="121" x="89.5" y="266.6245">all_possible_features</text><text fill="#000000" font-family="sans-serif" font-size="11" lengthAdjust="spacingAndGlyphs" textLength="69" x="89.5" y="279.4292">date_format</text><text fill="#000000" font-family="sans-serif" font-size="11" lengthAdjust="spacingAndGlyphs" textLength="95" x="89.5" y="292.2339">individual_status</text><text fill="#000000" font-family="sans-serif" font-size="11" lengthAdjust="spacingAndGlyphs" textLength="101" x="89.5" y="305.0386">lockdown_policies</text><text fill="#000000" font-family="sans-serif" font-size="11" lengthAdjust="spacingAndGlyphs" textLength="27" x="89.5" y="317.8433">start</text><text fill="#000000" font-family="sans-serif" font-size="11" lengthAdjust="spacingAndGlyphs" textLength="32" x="89.5" y="330.6479">steps</text><text fill="#000000" font-family="sans-serif" font-size="11" lengthAdjust="spacingAndGlyphs" textLength="67" x="89.5" y="343.4526">time_period</text><line style="stroke: #A80036; stroke-width: 1.5;" x1="84.5" x2="285.5" y1="350.0469" y2="350.0469"/><text fill="#000000" font-family="sans-serif" font-size="11" lengthAdjust="spacingAndGlyphs" textLength="49" x="89.5" y="364.2573">__init__()</text><text fill="#000000" font-family="sans-serif" font-size="11" lengthAdjust="spacingAndGlyphs" textLength="191" x="89.5" y="377.062">_get_one_hot_encoded_features()</text><text fill="#000000" font-family="sans-serif" font-size="11" lengthAdjust="spacingAndGlyphs" textLength="83" x="89.5" y="389.8667">adjust_cases()</text><text fill="#000000" font-family="sans-serif" font-size="11" lengthAdjust="spacingAndGlyphs" textLength="130" x="89.5" y="402.6714">compute_time_period()</text><text fill="#000000" font-family="sans-serif" font-size="11" lengthAdjust="spacingAndGlyphs" textLength="157" x="89.5" y="415.4761">create_empty_hypotheses()</text><text fill="#000000" font-family="sans-serif" font-size="11" lengthAdjust="spacingAndGlyphs" textLength="128" x="89.5" y="428.2808">download_covid_data()</text><text fill="#000000" font-family="sans-serif" font-size="11" lengthAdjust="spacingAndGlyphs" textLength="92" x="89.5" y="441.0854">get_covid_data()</text><text fill="#000000" font-family="sans-serif" font-size="11" lengthAdjust="spacingAndGlyphs" textLength="116" x="89.5" y="453.8901">get_positive_cases()</text><text fill="#000000" font-family="sans-serif" font-size="11" lengthAdjust="spacingAndGlyphs" textLength="106" x="89.5" y="466.6948">read_hypotheses()</text><text fill="#000000" font-family="sans-serif" font-size="11" lengthAdjust="spacingAndGlyphs" textLength="160" x="89.5" y="479.4995">scale_cases_to_population()</text><text fill="#000000" font-family="sans-serif" font-size="11" lengthAdjust="spacingAndGlyphs" textLength="118" x="89.5" y="492.3042">validate_param_file()</text><!--MD5=[f8da8b6fa98f4c94d9e04df8ed767d99]
class UnknownType--><rect fill="#FEFECE" filter="url(#f1nln10oulr97o)" height="32" id="UnknownType" style="stroke: #A80036; stroke-width: 1.5;" width="118" x="6" y="610"/><ellipse cx="21" cy="626" fill="#ADD1B2" rx="11" ry="11" style="stroke: #A80036; stroke-width: 1.0;"/><path d="M23.9688,631.6406 Q23.3906,631.9375 22.75,632.0781 Q22.1094,632.2344 21.4063,632.2344 Q18.9063,632.2344 17.5781,630.5938 Q16.2656,628.9375 16.2656,625.8125 Q16.2656,622.6875 17.5781,621.0313 Q18.9063,619.375 21.4063,619.375 Q22.1094,619.375 22.75,619.5313 Q23.4063,619.6875 23.9688,619.9844 L23.9688,622.7031 Q23.3438,622.125 22.75,621.8594 Q22.1563,621.5781 21.5313,621.5781 Q20.1875,621.5781 19.5,622.6563 Q18.8125,623.7188 18.8125,625.8125 Q18.8125,627.9063 19.5,628.9844 Q20.1875,630.0469 21.5313,630.0469 Q22.1563,630.0469 22.75,629.7813 Q23.3438,629.5 23.9688,628.9219 L23.9688,631.6406 Z "/><text fill="#000000" font-family="sans-serif" font-size="12" lengthAdjust="spacingAndGlyphs" textLength="86" x="35" y="630.1543">UnknownType</text><!--MD5=[36b0e245bf430e2a9a71d9dcae4d8422]
class set--><rect fill="#FEFECE" filter="url(#f1nln10oulr97o)" height="32" id="set" style="stroke: #A80036; stroke-width: 1.5;" width="52" x="159" y="610"/><ellipse cx="174" cy="626" fill="#ADD1B2" rx="11" ry="11" style="stroke: #A80036; stroke-width: 1.0;"/><path d="M176.9688,631.6406 Q176.3906,631.9375 175.75,632.0781 Q175.1094,632.2344 174.4063,632.2344 Q171.9063,632.2344 170.5781,630.5938 Q169.2656,628.9375 169.2656,625.8125 Q169.2656,622.6875 170.5781,621.0313 Q171.9063,619.375 174.4063,619.375 Q175.1094,619.375 175.75,619.5313 Q176.4063,619.6875 176.9688,619.9844 L176.9688,622.7031 Q176.3438,622.125 175.75,621.8594 Q175.1563,621.5781 174.5313,621.5781 Q173.1875,621.5781 172.5,622.6563 Q171.8125,623.7188 171.8125,625.8125 Q171.8125,627.9063 172.5,628.9844 Q173.1875,630.0469 174.5313,630.0469 Q175.1563,630.0469 175.75,629.7813 Q176.3438,629.5 176.9688,628.9219 L176.9688,631.6406 Z "/><text fill="#000000" font-family="sans-serif" font-size="12" lengthAdjust="spacingAndGlyphs" textLength="20" x="188" y="630.1543">set</text><!--MD5=[b5c4998e23cc2bc43d4c51549e9a1fdc]
class hypothesis_py--><rect fill="#8FBC8F" filter="url(#f1nln10oulr97o)" height="84.3516" id="hypothesis_py" style="stroke: #A80036; stroke-width: 1.5;" width="136" x="197" y="8"/><ellipse cx="219.2" cy="26.9688" fill="#DA70D6" rx="11" ry="11" style="stroke: #A80036; stroke-width: 1.0;"/><path d="M214.9188,20.5781 L217.8406,20.5781 L219.3094,26.0156 L220.7781,20.5781 L223.7156,20.5781 L223.7156,32.9688 L221.6063,32.9688 L221.6063,23.0469 L220.2938,28.4688 L218.3563,28.4688 L217.0281,23.0469 L217.0281,32.9688 L214.9188,32.9688 L214.9188,20.5781 Z "/><text fill="#000000" font-family="sans-serif" font-size="12" font-style="italic" lengthAdjust="spacingAndGlyphs" textLength="60" x="248.8" y="24.1387">«module»</text><text fill="#000000" font-family="sans-serif" font-size="12" lengthAdjust="spacingAndGlyphs" textLength="88" x="234.8" y="38.1074">hypothesis_py</text><line style="stroke: #A80036; stroke-width: 1.5;" x1="198" x2="332" y1="45.9375" y2="45.9375"/><text fill="#000000" font-family="sans-serif" font-size="11" lengthAdjust="spacingAndGlyphs" textLength="112" x="203" y="60.1479">PARAMS_INDIVIDUAL</text><text fill="#000000" font-family="sans-serif" font-size="11" lengthAdjust="spacingAndGlyphs" textLength="124" x="203" y="72.9526">PARAMS_IPF_WEIGHTS</text><text fill="#000000" font-family="sans-serif" font-size="11" lengthAdjust="spacingAndGlyphs" textLength="72" x="203" y="85.7573">date_pattern</text><!--MD5=[3ada0b1ccda01f6af47785107eed7eb1]
class Individual--><rect fill="#FEFECE" filter="url(#f1nln10oulr97o)" height="342.5078" id="Individual" style="stroke: #A80036; stroke-width: 1.5;" width="186" x="460" y="169"/><ellipse cx="519.75" cy="185" fill="#ADD1B2" rx="11" ry="11" style="stroke: #A80036; stroke-width: 1.0;"/><path d="M522.7188,190.6406 Q522.1406,190.9375 521.5,191.0781 Q520.8594,191.2344 520.1563,191.2344 Q517.6563,191.2344 516.3281,189.5938 Q515.0156,187.9375 515.0156,184.8125 Q515.0156,181.6875 516.3281,180.0313 Q517.6563,178.375 520.1563,178.375 Q520.8594,178.375 521.5,178.5313 Q522.1563,178.6875 522.7188,178.9844 L522.7188,181.7031 Q522.0938,181.125 521.5,180.8594 Q520.9063,180.5781 520.2813,180.5781 Q518.9375,180.5781 518.25,181.6563 Q517.5625,182.7188 517.5625,184.8125 Q517.5625,186.9063 518.25,187.9844 Q518.9375,189.0469 520.2813,189.0469 Q520.9063,189.0469 521.5,188.7813 Q522.0938,188.5 522.7188,187.9219 L522.7188,190.6406 Z "/><text fill="#000000" font-family="sans-serif" font-size="12" lengthAdjust="spacingAndGlyphs" textLength="58" x="540.25" y="189.1543">Individual</text><line style="stroke: #A80036; stroke-width: 1.5;" x1="461" x2="645" y1="201" y2="201"/><text fill="#000000" font-family="sans-serif" font-size="11" lengthAdjust="spacingAndGlyphs" textLength="54" x="466" y="215.2104">_features</text><text fill="#000000" font-family="sans-serif" font-size="11" lengthAdjust="spacingAndGlyphs" textLength="42" x="466" y="228.0151">_status</text><text fill="#000000" font-family="sans-serif" font-size="11" lengthAdjust="spacingAndGlyphs" textLength="41" x="466" y="240.8198">actions</text><text fill="#000000" font-family="sans-serif" font-size="11" lengthAdjust="spacingAndGlyphs" textLength="88" x="466" y="253.6245">chosen_actions</text><text fill="#000000" font-family="sans-serif" font-size="11" lengthAdjust="spacingAndGlyphs" textLength="71" x="466" y="266.4292">covid_status</text><text fill="#000000" font-family="sans-serif" font-size="11" lengthAdjust="spacingAndGlyphs" textLength="113" x="466" y="279.2339">days_since_positive</text><text fill="#000000" font-family="sans-serif" font-size="11" lengthAdjust="spacingAndGlyphs" textLength="65" x="466" y="292.0386">dir_params</text><text fill="#000000" font-family="sans-serif" font-size="11" lengthAdjust="spacingAndGlyphs" textLength="10" x="466" y="304.8433">id</text><text fill="#000000" font-family="sans-serif" font-size="11" lengthAdjust="spacingAndGlyphs" textLength="59" x="466" y="317.6479">long_covid</text><text fill="#000000" font-family="sans-serif" font-size="11" lengthAdjust="spacingAndGlyphs" textLength="49" x="466" y="330.4526">recovery</text><line style="stroke: #A80036; stroke-width: 1.5;" x1="461" x2="645" y1="337.0469" y2="337.0469"/><text fill="#000000" font-family="sans-serif" font-size="11" lengthAdjust="spacingAndGlyphs" textLength="49" x="466" y="351.2573">__init__()</text><text fill="#000000" font-family="sans-serif" font-size="11" lengthAdjust="spacingAndGlyphs" textLength="174" x="466" y="364.062">choose_actions_on_lockdown()</text><text fill="#000000" font-family="sans-serif" font-size="11" lengthAdjust="spacingAndGlyphs" textLength="73" x="466" y="376.8667">get_actions()</text><text fill="#000000" font-family="sans-serif" font-size="11" lengthAdjust="spacingAndGlyphs" textLength="103" x="466" y="389.6714">get_covid_status()</text><text fill="#000000" font-family="sans-serif" font-size="11" lengthAdjust="spacingAndGlyphs" textLength="80" x="466" y="402.4761">get_features()</text><text fill="#000000" font-family="sans-serif" font-size="11" lengthAdjust="spacingAndGlyphs" textLength="68" x="466" y="415.2808">get_status()</text><text fill="#000000" font-family="sans-serif" font-size="11" lengthAdjust="spacingAndGlyphs" textLength="83" x="466" y="428.0854">is_long_covid()</text><text fill="#000000" font-family="sans-serif" font-size="11" lengthAdjust="spacingAndGlyphs" textLength="81" x="466" y="440.8901">is_recovered()</text><text fill="#000000" font-family="sans-serif" font-size="11" lengthAdjust="spacingAndGlyphs" textLength="171" x="466" y="453.6948">modify_policy_when_infected()</text><text fill="#000000" font-family="sans-serif" font-size="11" lengthAdjust="spacingAndGlyphs" textLength="57" x="466" y="466.4995">populate()</text><text fill="#000000" font-family="sans-serif" font-size="11" lengthAdjust="spacingAndGlyphs" textLength="77" x="466" y="479.3042">populate_ipf()</text><text fill="#000000" font-family="sans-serif" font-size="11" lengthAdjust="spacingAndGlyphs" textLength="113" x="466" y="492.1089">sampling_from_ipf()</text><text fill="#000000" font-family="sans-serif" font-size="11" lengthAdjust="spacingAndGlyphs" textLength="79" x="466" y="504.9136">take_actions()</text><!--MD5=[8a9a4ef89bf67ce4e68f8c9631c8a484]
class individual_py--><rect fill="#8FBC8F" filter="url(#f1nln10oulr97o)" height="37.9375" id="individual_py" style="stroke: #A80036; stroke-width: 1.5;" width="110" x="498" y="31"/><ellipse cx="513" cy="49.9688" fill="#DA70D6" rx="11" ry="11" style="stroke: #A80036; stroke-width: 1.0;"/><path d="M508.7188,43.5781 L511.6406,43.5781 L513.1094,49.0156 L514.5781,43.5781 L517.5156,43.5781 L517.5156,55.9688 L515.4063,55.9688 L515.4063,46.0469 L514.0938,51.4688 L512.1563,51.4688 L510.8281,46.0469 L510.8281,55.9688 L508.7188,55.9688 L508.7188,43.5781 Z "/><text fill="#000000" font-family="sans-serif" font-size="12" font-style="italic" lengthAdjust="spacingAndGlyphs" textLength="60" x="536" y="47.1387">«module»</text><text fill="#000000" font-family="sans-serif" font-size="12" lengthAdjust="spacingAndGlyphs" textLength="78" x="527" y="61.1074">individual_py</text><!--MD5=[7e20e022571e30ec1001cf6eabd7f3e2]
class Model--><rect fill="#FEFECE" filter="url(#f1nln10oulr97o)" height="227.2656" id="Model" style="stroke: #A80036; stroke-width: 1.5;" width="167" x="773.5" y="227"/><ellipse cx="834.25" cy="243" fill="#ADD1B2" rx="11" ry="11" style="stroke: #A80036; stroke-width: 1.0;"/><path d="M837.2188,248.6406 Q836.6406,248.9375 836,249.0781 Q835.3594,249.2344 834.6563,249.2344 Q832.1563,249.2344 830.8281,247.5938 Q829.5156,245.9375 829.5156,242.8125 Q829.5156,239.6875 830.8281,238.0313 Q832.1563,236.375 834.6563,236.375 Q835.3594,236.375 836,236.5313 Q836.6563,236.6875 837.2188,236.9844 L837.2188,239.7031 Q836.5938,239.125 836,238.8594 Q835.4063,238.5781 834.7813,238.5781 Q833.4375,238.5781 832.75,239.6563 Q832.0625,240.7188 832.0625,242.8125 Q832.0625,244.9063 832.75,245.9844 Q833.4375,247.0469 834.7813,247.0469 Q835.4063,247.0469 836,246.7813 Q836.5938,246.5 837.2188,245.9219 L837.2188,248.6406 Z "/><text fill="#000000" font-family="sans-serif" font-size="12" lengthAdjust="spacingAndGlyphs" textLength="37" x="854.75" y="247.1543">Model</text><line style="stroke: #A80036; stroke-width: 1.5;" x1="774.5" x2="939.5" y1="259" y2="259"/><text fill="#000000" font-family="sans-serif" font-size="11" lengthAdjust="spacingAndGlyphs" textLength="39" x="779.5" y="273.2104">agents</text><text fill="#000000" font-family="sans-serif" font-size="11" lengthAdjust="spacingAndGlyphs" textLength="103" x="779.5" y="286.0151">cumulative_status</text><text fill="#000000" font-family="sans-serif" font-size="11" lengthAdjust="spacingAndGlyphs" textLength="72" x="779.5" y="298.8198">current_step</text><text fill="#000000" font-family="sans-serif" font-size="11" lengthAdjust="spacingAndGlyphs" textLength="65" x="779.5" y="311.6245">dir_params</text><text fill="#000000" font-family="sans-serif" font-size="11" lengthAdjust="spacingAndGlyphs" textLength="94" x="779.5" y="324.4292">lockdown_status</text><text fill="#000000" font-family="sans-serif" font-size="11" lengthAdjust="spacingAndGlyphs" textLength="19" x="779.5" y="337.2339">rng</text><text fill="#000000" font-family="sans-serif" font-size="11" lengthAdjust="spacingAndGlyphs" textLength="75" x="779.5" y="350.0386">simulation_id</text><line style="stroke: #A80036; stroke-width: 1.5;" x1="774.5" x2="939.5" y1="356.6328" y2="356.6328"/><text fill="#000000" font-family="sans-serif" font-size="11" lengthAdjust="spacingAndGlyphs" textLength="49" x="779.5" y="370.8433">__init__()</text><text fill="#000000" font-family="sans-serif" font-size="11" lengthAdjust="spacingAndGlyphs" textLength="155" x="779.5" y="383.6479">get_recovered_individuals()</text><text fill="#000000" font-family="sans-serif" font-size="11" lengthAdjust="spacingAndGlyphs" textLength="43" x="779.5" y="396.4526">report()</text><text fill="#000000" font-family="sans-serif" font-size="11" lengthAdjust="spacingAndGlyphs" textLength="27" x="779.5" y="409.2573">run()</text><text fill="#000000" font-family="sans-serif" font-size="11" lengthAdjust="spacingAndGlyphs" textLength="33" x="779.5" y="422.062">step()</text><text fill="#000000" font-family="sans-serif" font-size="11" lengthAdjust="spacingAndGlyphs" textLength="47" x="779.5" y="434.8667">update()</text><text fill="#000000" font-family="sans-serif" font-size="11" lengthAdjust="spacingAndGlyphs" textLength="131" x="779.5" y="447.6714">update_covid_counter()</text><!--MD5=[ec9e782bad779c53622ae0851576a95f]
class dict--><rect fill="#FEFECE" filter="url(#f1nln10oulr97o)" height="32" id="dict" style="stroke: #A80036; stroke-width: 1.5;" width="55" x="879.5" y="610"/><ellipse cx="894.5" cy="626" fill="#ADD1B2" rx="11" ry="11" style="stroke: #A80036; stroke-width: 1.0;"/><path d="M897.4688,631.6406 Q896.8906,631.9375 896.25,632.0781 Q895.6094,632.2344 894.9063,632.2344 Q892.4063,632.2344 891.0781,630.5938 Q889.7656,628.9375 889.7656,625.8125 Q889.7656,622.6875 891.0781,621.0313 Q892.4063,619.375 894.9063,619.375 Q895.6094,619.375 896.25,619.5313 Q896.9063,619.6875 897.4688,619.9844 L897.4688,622.7031 Q896.8438,622.125 896.25,621.8594 Q895.6563,621.5781 895.0313,621.5781 Q893.6875,621.5781 893,622.6563 Q892.3125,623.7188 892.3125,625.8125 Q892.3125,627.9063 893,628.9844 Q893.6875,630.0469 895.0313,630.0469 Q895.6563,630.0469 896.25,629.7813 Q896.8438,629.5 897.4688,628.9219 L897.4688,631.6406 Z "/><text fill="#000000" font-family="sans-serif" font-size="12" lengthAdjust="spacingAndGlyphs" textLength="23" x="908.5" y="630.1543">dict</text><!--MD5=[ce0bdc9c9d7363fc59409c686ba93793]
class list--><rect fill="#FEFECE" filter="url(#f1nln10oulr97o)" height="32" id="list" style="stroke: #A80036; stroke-width: 1.5;" width="50" x="1029" y="610"/><ellipse cx="1044" cy="626" fill="#ADD1B2" rx="11" ry="11" style="stroke: #A80036; stroke-width: 1.0;"/><path d="M1046.9688,631.6406 Q1046.3906,631.9375 1045.75,632.0781 Q1045.1094,632.2344 1044.4063,632.2344 Q1041.9063,632.2344 1040.5781,630.5938 Q1039.2656,628.9375 1039.2656,625.8125 Q1039.2656,622.6875 1040.5781,621.0313 Q1041.9063,619.375 1044.4063,619.375 Q1045.1094,619.375 1045.75,619.5313 Q1046.4063,619.6875 1046.9688,619.9844 L1046.9688,622.7031 Q1046.3438,622.125 1045.75,621.8594 Q1045.1563,621.5781 1044.5313,621.5781 Q1043.1875,621.5781 1042.5,622.6563 Q1041.8125,623.7188 1041.8125,625.8125 Q1041.8125,627.9063 1042.5,628.9844 Q1043.1875,630.0469 1044.5313,630.0469 Q1045.1563,630.0469 1045.75,629.7813 Q1046.3438,629.5 1046.9688,628.9219 L1046.9688,631.6406 Z "/><text fill="#000000" font-family="sans-serif" font-size="12" lengthAdjust="spacingAndGlyphs" textLength="18" x="1058" y="630.1543">list</text><!--MD5=[b79685a4a12ba44cf8ecde1af12801e7]
class model_py--><rect fill="#8FBC8F" filter="url(#f1nln10oulr97o)" height="37.9375" id="model_py" style="stroke: #A80036; stroke-width: 1.5;" width="90" x="812" y="31"/><ellipse cx="827" cy="49.9688" fill="#DA70D6" rx="11" ry="11" style="stroke: #A80036; stroke-width: 1.0;"/><path d="M822.7188,43.5781 L825.6406,43.5781 L827.1094,49.0156 L828.5781,43.5781 L831.5156,43.5781 L831.5156,55.9688 L829.4063,55.9688 L829.4063,46.0469 L828.0938,51.4688 L826.1563,51.4688 L824.8281,46.0469 L824.8281,55.9688 L822.7188,55.9688 L822.7188,43.5781 Z "/><text fill="#000000" font-family="sans-serif" font-size="12" font-style="italic" lengthAdjust="spacingAndGlyphs" textLength="60" x="840" y="47.1387">«module»</text><text fill="#000000" font-family="sans-serif" font-size="12" lengthAdjust="spacingAndGlyphs" textLength="58" x="841" y="61.1074">model_py</text><!--MD5=[fbdea6638e4455e75fb05ed36cc27d05]
link Hypothesis to UnknownType--><path d="M109.208,510.3147 C109.208,510.3147 100.09,531.99 96,542 C88.51,560.36 80.7,581.27 74.79,597.51 " fill="none" id="Hypothesis-UnknownType" style="stroke: #A80036; stroke-width: 1.0;"/><polygon fill="#A80036" points="70.33,609.9,77.1408,602.7858,72.0228,605.1953,69.6133,600.0773,70.33,609.9" style="stroke: #A80036; stroke-width: 1.0;"/><line style="stroke: #A80036; stroke-width: 1.0;" x1="72.0228" x2="74.74" y1="605.1953" y2="597.67"/><polygon fill="#A80036" points="113.9,499.27,107.8724,503.2283,109.208,510.3147,115.2356,506.3563,113.9,499.27" style="stroke: #A80036; stroke-width: 1.0;"/><text fill="#000000" font-family="sans-serif" font-size="13" lengthAdjust="spacingAndGlyphs" textLength="76" x="97" y="555.0669">time_period</text><!--MD5=[d4916a5054d422d375e14fec76a18dd1]
link Hypothesis to pd.Series--><path d="M268.63,499.21 C284.22,520.87 301.75,541.61 321,559 C348.1,583.49 385.94,601.01 414.51,611.82 " fill="none" id="Hypothesis-&gt;pd.Series" style="stroke: #A80036; stroke-width: 1.0; stroke-dasharray: 7.0,7.0;"/><polygon fill="#A80036" points="419.37,613.63,412.3291,606.7434,414.6837,611.8869,409.5401,614.2415,419.37,613.63" style="stroke: #A80036; stroke-width: 1.0;"/><text fill="#000000" font-family="sans-serif" font-size="13" lengthAdjust="spacingAndGlyphs" textLength="129" x="322" y="555.0669">daily_positive_cases</text><!--MD5=[a52b544b8c6a47b2c9d8a3942c0b72e4]
link Hypothesis to set--><path d="M181.47,499.21 C181.42,519.33 181.56,539.65 182,559 C182.35,574.25 183.14,591.47 183.83,604.49 " fill="none" id="Hypothesis-&gt;set" style="stroke: #A80036; stroke-width: 1.0; stroke-dasharray: 7.0,7.0;"/><polygon fill="#A80036" points="184.11,609.8,187.6411,600.6059,183.8525,604.8066,179.6517,601.018,184.11,609.8" style="stroke: #A80036; stroke-width: 1.0;"/><text fill="#000000" font-family="sans-serif" font-size="13" lengthAdjust="spacingAndGlyphs" textLength="47" x="183" y="555.0669">policies</text><!--MD5=[93e128c7c612f29f50796958e3ef4d51]
link hypothesis_py to Hypothesis--><path d="M231.79,92.36 C225.68,101.67 219.98,111.82 216,122 C208.6,140.92 202.94,161.37 198.61,181.91 " fill="none" id="hypothesis_py-Hypothesis" style="stroke: #A80036; stroke-width: 1.0; stroke-dasharray: 7.0,7.0;"/><text fill="#000000" font-family="sans-serif" font-size="13" lengthAdjust="spacingAndGlyphs" textLength="54" x="217" y="135.0669">contains</text><polygon fill="#000000" points="239.5,144.1328,242.5,150.1328,245.5,144.1328,239.5,144.1328" style="stroke: #000000; stroke-width: 1.0;"/><!--MD5=[00df6a110b5ba1f7bd42d5a018580166]
link hypothesis_py to re.compile--><path d="M278.97,92.29 C282.27,102.03 285.76,112.38 289,122 C313.52,194.79 342.52,281.34 355.34,319.61 " fill="none" id="hypothesis_py-&gt;re.compile" style="stroke: #A80036; stroke-width: 1.0;"/><polygon fill="#A80036" points="356.97,324.47,357.9098,314.6661,355.3846,319.728,350.3226,317.2028,356.97,324.47" style="stroke: #A80036; stroke-width: 1.0;"/><text fill="#000000" font-family="sans-serif" font-size="13" lengthAdjust="spacingAndGlyphs" textLength="30" x="294" y="135.0669">uses</text><!--MD5=[52a7e7d81ec3eae634c00c2501b4118e]
link Individual to pd.DataFrame--><path d="M566.84,512.14 C569.87,549.39 572.66,583.85 574.35,604.66 " fill="none" id="Individual-&gt;pd.DataFrame" style="stroke: #A80036; stroke-width: 1.0; stroke-dasharray: 7.0,7.0;"/><polygon fill="#A80036" points="574.77,609.9,578.0088,600.5989,574.3548,604.9173,570.0364,601.2633,574.77,609.9" style="stroke: #A80036; stroke-width: 1.0;"/><text fill="#000000" font-family="sans-serif" font-size="13" lengthAdjust="spacingAndGlyphs" textLength="58" x="571" y="555.0669">lockdown</text><!--MD5=[52a7e7d81ec3eae634c00c2501b4118e]
link Individual to pd.DataFrame--><path d="M459.98,474.09 C450.09,504 449.88,534.21 470,559 C480.87,572.4 492.51,559.39 508,567 C527.56,576.61 546.13,593.14 558.9,606.1 " fill="none" id="Individual-&gt;pd.DataFrame-1" style="stroke: #A80036; stroke-width: 1.0; stroke-dasharray: 7.0,7.0;"/><polygon fill="#A80036" points="562.68,609.99,559.2932,600.7418,559.2019,606.3979,553.5458,606.3067,562.68,609.99" style="stroke: #A80036; stroke-width: 1.0;"/><text fill="#000000" font-family="sans-serif" font-size="13" lengthAdjust="spacingAndGlyphs" textLength="89" x="471" y="555.0669">action_effects</text><!--MD5=[e8ab0ae35aac05ea99b07d53dddf04d8]
link individual_py to Individual--><path d="M553,69.05 C553,90.39 553,128.18 553,168.88 " fill="none" id="individual_py-Individual" style="stroke: #A80036; stroke-width: 1.0; stroke-dasharray: 7.0,7.0;"/><text fill="#000000" font-family="sans-serif" font-size="13" lengthAdjust="spacingAndGlyphs" textLength="54" x="554" y="135.0669">contains</text><polygon fill="#000000" points="576.5,144.1328,579.5,150.1328,582.5,144.1328,576.5,144.1328" style="stroke: #000000; stroke-width: 1.0;"/><!--MD5=[ed7783636853499e89f89b40052fb402]
link Model to dict--><path d="M878.9839,466.1777 C878.9839,466.1777 896.7,566.62 902.07,597.07 " fill="none" id="Model-dict" style="stroke: #A80036; stroke-width: 1.0;"/><polygon fill="#A80036" points="904.34,609.91,906.7163,600.3521,903.4717,604.986,898.8378,601.7414,904.34,609.91" style="stroke: #A80036; stroke-width: 1.0;"/><line style="stroke: #A80036; stroke-width: 1.0;" x1="903.4717" x2="902.08" y1="604.986" y2="597.11"/><polygon fill="#A80036" points="876.9,454.36,874.0027,460.9635,878.9839,466.1777,881.8812,459.5742,876.9,454.36" style="stroke: #A80036; stroke-width: 1.0;"/><text fill="#000000" font-family="sans-serif" font-size="13" lengthAdjust="spacingAndGlyphs" textLength="105" x="895" y="555.0669">lockdown_status</text><!--MD5=[ebffcf67c695f4725b055ee26230b4d3]
link Model to pd.DataFrame--><path d="M831.18,454.16 C817.73,491.67 797.66,530.99 768,559 C730.81,594.11 674.1,610.63 631.94,618.34 " fill="none" id="Model-&gt;pd.DataFrame" style="stroke: #A80036; stroke-width: 1.0; stroke-dasharray: 7.0,7.0;"/><polygon fill="#A80036" points="626.87,619.24,636.429,621.6119,631.7936,618.3694,635.0361,613.7341,626.87,619.24" style="stroke: #A80036; stroke-width: 1.0;"/><text fill="#000000" font-family="sans-serif" font-size="13" lengthAdjust="spacingAndGlyphs" textLength="58" x="782" y="555.0669">lockdown</text><!--MD5=[ebffcf67c695f4725b055ee26230b4d3]
link Model to pd.DataFrame--><path d="M773.45,425.79 C711.01,488.78 630.52,570 594.66,606.17 " fill="none" id="Model-&gt;pd.DataFrame-1" style="stroke: #A80036; stroke-width: 1.0; stroke-dasharray: 7.0,7.0;"/><polygon fill="#A80036" points="590.92,609.95,600.1052,606.3959,594.4484,606.4073,594.437,600.7505,590.92,609.95" style="stroke: #A80036; stroke-width: 1.0;"/><text fill="#000000" font-family="sans-serif" font-size="13" lengthAdjust="spacingAndGlyphs" textLength="89" x="652" y="555.0669">action_effects</text><!--MD5=[3d8e90d1819da45044700898ac62b392]
link Model to list--><path d="M940.55,445.47 C963.7,475.91 988.17,509.69 1009,542 C1022.48,562.9 1035.79,588.19 1044.39,605.31 " fill="none" id="Model-&gt;list" style="stroke: #A80036; stroke-width: 1.0; stroke-dasharray: 7.0,7.0;"/><polygon fill="#A80036" points="1046.69,609.92,1046.2554,600.0807,1044.4597,605.445,1039.0954,603.6493,1046.69,609.92" style="stroke: #A80036; stroke-width: 1.0;"/><text fill="#000000" font-family="sans-serif" font-size="13" lengthAdjust="spacingAndGlyphs" textLength="101" x="1019" y="555.0669">lockdown_policy</text><!--MD5=[2ab219b8cc672623079eb9cfd94ca050]
link model_py to Model--><path d="M857,69.05 C857,100.44 857,167.45 857,226.91 " fill="none" id="model_py-Model" style="stroke: #A80036; stroke-width: 1.0; stroke-dasharray: 7.0,7.0;"/><text fill="#000000" font-family="sans-serif" font-size="13" lengthAdjust="spacingAndGlyphs" textLength="54" x="858" y="135.0669">contains</text><polygon fill="#000000" points="880.5,144.1328,883.5,150.1328,886.5,144.1328,880.5,144.1328" style="stroke: #000000; stroke-width: 1.0;"/><text fill="#888888" font-family="sans-serif" font-size="10" lengthAdjust="spacingAndGlyphs" textLength="188" x="475.5" y="693.2822">Generated by GitUml www.gituml.com</text><!--MD5=[f456bb44fc5e7ea0706e03af8422e40d]
@startuml
class Hypothesis {
    RIVM_URL
    _required_params
    all_possible_actions
    all_possible_features
    date_format
    individual_status
    lockdown_policies
    start
    steps
    time_period
    __init__()
    _get_one_hot_encoded_features()
    adjust_cases()
    compute_time_period()
    create_empty_hypotheses()
    download_covid_data()
    get_covid_data()
    get_positive_cases()
    read_hypotheses()
    scale_cases_to_population()
    validate_param_file()
}

Hypothesis *- -> UnknownType : time_period
Hypothesis ..> pd.Series : daily_positive_cases
Hypothesis ..> set : policies
class hypothesis_py <<module>> << (M,orchid) >> #DarkSeaGreen {
    PARAMS_INDIVIDUAL
    PARAMS_IPF_WEIGHTS
    date_pattern
}

hypothesis_py .. Hypothesis : contains >
hypothesis_py - -> re.compile : uses
class Individual {
    _features
    _status
    actions
    chosen_actions
    covid_status
    days_since_positive
    dir_params
    id
    long_covid
    recovery
    __init__()
    choose_actions_on_lockdown()
    get_actions()
    get_covid_status()
    get_features()
    get_status()
    is_long_covid()
    is_recovered()
    modify_policy_when_infected()
    populate()
    populate_ipf()
    sampling_from_ipf()
    take_actions()
}

Individual ..> pd.DataFrame : lockdown
Individual ..> pd.DataFrame : action_effects
class individual_py <<module>> << (M,orchid) >> #DarkSeaGreen {
}

individual_py .. Individual : contains >
class Model {
    agents
    cumulative_status
    current_step
    dir_params
    lockdown_status
    rng
    simulation_id
    __init__()
    get_recovered_individuals()
    report()
    run()
    step()
    update()
    update_covid_counter()
}

Model *- -> dict : lockdown_status
Model ..> pd.DataFrame : lockdown
Model ..> pd.DataFrame : action_effects
Model ..> list : lockdown_policy
class model_py <<module>> << (M,orchid) >> #DarkSeaGreen {
}

model_py .. Model : contains >
center footer Generated by GitUml www.gituml.com
hide empty members
@enduml

PlantUML version 1.2020.08(Sun Apr 26 14:08:22 UTC 2020)
(GPL source distribution)
Java Runtime: OpenJDK Runtime Environment
JVM: OpenJDK 64-Bit Server VM
Java Version: 1.8.0_382-heroku-b05
Operating System: Linux
Default Encoding: UTF-8
Language: en
Country: US
--></g></svg>