<?xml version="1.0" encoding="UTF-8" standalone="no"?><svg xmlns="http://www.w3.org/2000/svg" xmlns:xlink="http://www.w3.org/1999/xlink" contentScriptType="application/ecmascript" contentStyleType="text/css" height="615px" preserveAspectRatio="none" style="width:934px;height:615px;" version="1.1" viewBox="0 0 934 615" width="934px" zoomAndPan="magnify"><defs><filter height="300%" id="f1vhfzsjk39w5" width="300%" x="-1" y="-1"><feGaussianBlur result="blurOut" stdDeviation="2.0"/><feColorMatrix in="blurOut" result="blurOut2" type="matrix" values="0 0 0 0 0 0 0 0 0 0 0 0 0 0 0 0 0 0 .4 0"/><feOffset dx="4.0" dy="4.0" in="blurOut2" result="blurOut3"/><feBlend in="SourceGraphic" in2="blurOut3" mode="normal"/></filter></defs><g><!--MD5=[c23c53dfca18c97704152f5fda5f5931]
cluster pd--><polygon fill="#FFFFFF" filter="url(#f1vhfzsjk39w5)" points="612.5,468,638.5,468,645.5,490.2969,852.5,490.2969,852.5,567,612.5,567,612.5,468" style="stroke: #000000; stroke-width: 1.5;"/><line style="stroke: #000000; stroke-width: 1.5;" x1="612.5" x2="645.5" y1="490.2969" y2="490.2969"/><text fill="#000000" font-family="sans-serif" font-size="14" font-weight="bold" lengthAdjust="spacingAndGlyphs" textLength="20" x="616.5" y="482.9951">pd</text><!--MD5=[017fe6bc143c9ef60bb5af37eb87776a]
class pd.Series--><rect fill="#FEFECE" filter="url(#f1vhfzsjk39w5)" height="48" id="pd.Series" style="stroke: #A80036; stroke-width: 1.5;" width="71" x="765" y="503"/><ellipse cx="780" cy="519" fill="#ADD1B2" rx="11" ry="11" style="stroke: #A80036; stroke-width: 1.0;"/><path d="M782.9688,524.6406 Q782.3906,524.9375 781.75,525.0781 Q781.1094,525.2344 780.4063,525.2344 Q777.9063,525.2344 776.5781,523.5938 Q775.2656,521.9375 775.2656,518.8125 Q775.2656,515.6875 776.5781,514.0313 Q777.9063,512.375 780.4063,512.375 Q781.1094,512.375 781.75,512.5313 Q782.4063,512.6875 782.9688,512.9844 L782.9688,515.7031 Q782.3438,515.125 781.75,514.8594 Q781.1563,514.5781 780.5313,514.5781 Q779.1875,514.5781 778.5,515.6563 Q777.8125,516.7188 777.8125,518.8125 Q777.8125,520.9063 778.5,521.9844 Q779.1875,523.0469 780.5313,523.0469 Q781.1563,523.0469 781.75,522.7813 Q782.3438,522.5 782.9688,521.9219 L782.9688,524.6406 Z "/><text fill="#000000" font-family="sans-serif" font-size="12" lengthAdjust="spacingAndGlyphs" textLength="39" x="794" y="523.1543">Series</text><line style="stroke: #A80036; stroke-width: 1.5;" x1="766" x2="835" y1="535" y2="535"/><line style="stroke: #A80036; stroke-width: 1.5;" x1="766" x2="835" y1="543" y2="543"/><!--MD5=[f99c4367c453e5fe9db9cf62c28422b8]
class pd.DataFrame--><rect fill="#FEFECE" filter="url(#f1vhfzsjk39w5)" height="48" id="pd.DataFrame" style="stroke: #A80036; stroke-width: 1.5;" width="101" x="629" y="503"/><ellipse cx="644" cy="519" fill="#ADD1B2" rx="11" ry="11" style="stroke: #A80036; stroke-width: 1.0;"/><path d="M646.9688,524.6406 Q646.3906,524.9375 645.75,525.0781 Q645.1094,525.2344 644.4063,525.2344 Q641.9063,525.2344 640.5781,523.5938 Q639.2656,521.9375 639.2656,518.8125 Q639.2656,515.6875 640.5781,514.0313 Q641.9063,512.375 644.4063,512.375 Q645.1094,512.375 645.75,512.5313 Q646.4063,512.6875 646.9688,512.9844 L646.9688,515.7031 Q646.3438,515.125 645.75,514.8594 Q645.1563,514.5781 644.5313,514.5781 Q643.1875,514.5781 642.5,515.6563 Q641.8125,516.7188 641.8125,518.8125 Q641.8125,520.9063 642.5,521.9844 Q643.1875,523.0469 644.5313,523.0469 Q645.1563,523.0469 645.75,522.7813 Q646.3438,522.5 646.9688,521.9219 L646.9688,524.6406 Z "/><text fill="#000000" font-family="sans-serif" font-size="12" lengthAdjust="spacingAndGlyphs" textLength="69" x="658" y="523.1543">DataFrame</text><line style="stroke: #A80036; stroke-width: 1.5;" x1="630" x2="729" y1="535" y2="535"/><line style="stroke: #A80036; stroke-width: 1.5;" x1="630" x2="729" y1="543" y2="543"/><!--MD5=[61511f38d1f2cbd915a3e933561a1607]
class Hypothesis--><rect fill="#FEFECE" filter="url(#f1vhfzsjk39w5)" height="163.2422" id="Hypothesis" style="stroke: #A80036; stroke-width: 1.5;" width="203" x="6" y="203.5"/><ellipse cx="68.75" cy="219.5" fill="#ADD1B2" rx="11" ry="11" style="stroke: #A80036; stroke-width: 1.0;"/><path d="M71.7188,225.1406 Q71.1406,225.4375 70.5,225.5781 Q69.8594,225.7344 69.1563,225.7344 Q66.6563,225.7344 65.3281,224.0938 Q64.0156,222.4375 64.0156,219.3125 Q64.0156,216.1875 65.3281,214.5313 Q66.6563,212.875 69.1563,212.875 Q69.8594,212.875 70.5,213.0313 Q71.1563,213.1875 71.7188,213.4844 L71.7188,216.2031 Q71.0938,215.625 70.5,215.3594 Q69.9063,215.0781 69.2813,215.0781 Q67.9375,215.0781 67.25,216.1563 Q66.5625,217.2188 66.5625,219.3125 Q66.5625,221.4063 67.25,222.4844 Q67.9375,223.5469 69.2813,223.5469 Q69.9063,223.5469 70.5,223.2813 Q71.0938,223 71.7188,222.4219 L71.7188,225.1406 Z "/><text fill="#000000" font-family="sans-serif" font-size="12" lengthAdjust="spacingAndGlyphs" textLength="69" x="89.25" y="223.6543">Hypothesis</text><line style="stroke: #A80036; stroke-width: 1.5;" x1="7" x2="208" y1="235.5" y2="235.5"/><text fill="#000000" font-family="sans-serif" font-size="11" lengthAdjust="spacingAndGlyphs" textLength="104" x="12" y="249.7104">_required_params</text><text fill="#000000" font-family="sans-serif" font-size="11" lengthAdjust="spacingAndGlyphs" textLength="114" x="12" y="262.5151">all_possible_actions</text><text fill="#000000" font-family="sans-serif" font-size="11" lengthAdjust="spacingAndGlyphs" textLength="121" x="12" y="275.3198">all_possible_features</text><text fill="#000000" font-family="sans-serif" font-size="11" lengthAdjust="spacingAndGlyphs" textLength="95" x="12" y="288.1245">individual_status</text><text fill="#000000" font-family="sans-serif" font-size="11" lengthAdjust="spacingAndGlyphs" textLength="101" x="12" y="300.9292">lockdown_policies</text><line style="stroke: #A80036; stroke-width: 1.5;" x1="7" x2="208" y1="307.5234" y2="307.5234"/><text fill="#000000" font-family="sans-serif" font-size="11" lengthAdjust="spacingAndGlyphs" textLength="191" x="12" y="321.7339">_get_one_hot_encoded_features()</text><text fill="#000000" font-family="sans-serif" font-size="11" lengthAdjust="spacingAndGlyphs" textLength="157" x="12" y="334.5386">create_empty_hypotheses()</text><text fill="#000000" font-family="sans-serif" font-size="11" lengthAdjust="spacingAndGlyphs" textLength="106" x="12" y="347.3433">read_hypotheses()</text><text fill="#000000" font-family="sans-serif" font-size="11" lengthAdjust="spacingAndGlyphs" textLength="118" x="12" y="360.1479">validate_param_file()</text><!--MD5=[b5c4998e23cc2bc43d4c51549e9a1fdc]
class hypothesis_py--><rect fill="#8FBC8F" filter="url(#f1vhfzsjk39w5)" height="79.5469" id="hypothesis_py" style="stroke: #A80036; stroke-width: 1.5;" width="136" x="39.5" y="8"/><ellipse cx="61.7" cy="26.9688" fill="#DA70D6" rx="11" ry="11" style="stroke: #A80036; stroke-width: 1.0;"/><path d="M57.4188,20.5781 L60.3406,20.5781 L61.8094,26.0156 L63.2781,20.5781 L66.2156,20.5781 L66.2156,32.9688 L64.1063,32.9688 L64.1063,23.0469 L62.7938,28.4688 L60.8563,28.4688 L59.5281,23.0469 L59.5281,32.9688 L57.4188,32.9688 L57.4188,20.5781 Z "/><text fill="#000000" font-family="sans-serif" font-size="12" font-style="italic" lengthAdjust="spacingAndGlyphs" textLength="60" x="91.3" y="24.1387">«module»</text><text fill="#000000" font-family="sans-serif" font-size="12" lengthAdjust="spacingAndGlyphs" textLength="88" x="77.3" y="38.1074">hypothesis_py</text><line style="stroke: #A80036; stroke-width: 1.5;" x1="40.5" x2="174.5" y1="45.9375" y2="45.9375"/><text fill="#000000" font-family="sans-serif" font-size="11" lengthAdjust="spacingAndGlyphs" textLength="112" x="45.5" y="60.1479">PARAMS_INDIVIDUAL</text><text fill="#000000" font-family="sans-serif" font-size="11" lengthAdjust="spacingAndGlyphs" textLength="124" x="45.5" y="72.9526">PARAMS_IPF_WEIGHTS</text><line style="stroke: #A80036; stroke-width: 1.5;" x1="40.5" x2="174.5" y1="79.5469" y2="79.5469"/><!--MD5=[3ada0b1ccda01f6af47785107eed7eb1]
class Individual--><rect fill="#FEFECE" filter="url(#f1vhfzsjk39w5)" height="240.0703" id="Individual" style="stroke: #A80036; stroke-width: 1.5;" width="186" x="717.5" y="165"/><ellipse cx="777.25" cy="181" fill="#ADD1B2" rx="11" ry="11" style="stroke: #A80036; stroke-width: 1.0;"/><path d="M780.2188,186.6406 Q779.6406,186.9375 779,187.0781 Q778.3594,187.2344 777.6563,187.2344 Q775.1563,187.2344 773.8281,185.5938 Q772.5156,183.9375 772.5156,180.8125 Q772.5156,177.6875 773.8281,176.0313 Q775.1563,174.375 777.6563,174.375 Q778.3594,174.375 779,174.5313 Q779.6563,174.6875 780.2188,174.9844 L780.2188,177.7031 Q779.5938,177.125 779,176.8594 Q778.4063,176.5781 777.7813,176.5781 Q776.4375,176.5781 775.75,177.6563 Q775.0625,178.7188 775.0625,180.8125 Q775.0625,182.9063 775.75,183.9844 Q776.4375,185.0469 777.7813,185.0469 Q778.4063,185.0469 779,184.7813 Q779.5938,184.5 780.2188,183.9219 L780.2188,186.6406 Z "/><text fill="#000000" font-family="sans-serif" font-size="12" lengthAdjust="spacingAndGlyphs" textLength="58" x="797.75" y="185.1543">Individual</text><line style="stroke: #A80036; stroke-width: 1.5;" x1="718.5" x2="902.5" y1="197" y2="197"/><text fill="#000000" font-family="sans-serif" font-size="11" lengthAdjust="spacingAndGlyphs" textLength="54" x="723.5" y="211.2104">_features</text><text fill="#000000" font-family="sans-serif" font-size="11" lengthAdjust="spacingAndGlyphs" textLength="42" x="723.5" y="224.0151">_status</text><text fill="#000000" font-family="sans-serif" font-size="11" lengthAdjust="spacingAndGlyphs" textLength="41" x="723.5" y="236.8198">actions</text><text fill="#000000" font-family="sans-serif" font-size="11" lengthAdjust="spacingAndGlyphs" textLength="88" x="723.5" y="249.6245">chosen_actions</text><text fill="#000000" font-family="sans-serif" font-size="11" lengthAdjust="spacingAndGlyphs" textLength="65" x="723.5" y="262.4292">dir_params</text><text fill="#000000" font-family="sans-serif" font-size="11" lengthAdjust="spacingAndGlyphs" textLength="10" x="723.5" y="275.2339">id</text><line style="stroke: #A80036; stroke-width: 1.5;" x1="718.5" x2="902.5" y1="281.8281" y2="281.8281"/><text fill="#000000" font-family="sans-serif" font-size="11" lengthAdjust="spacingAndGlyphs" textLength="49" x="723.5" y="296.0386">__init__()</text><text fill="#000000" font-family="sans-serif" font-size="11" lengthAdjust="spacingAndGlyphs" textLength="174" x="723.5" y="308.8433">choose_actions_on_lockdown()</text><text fill="#000000" font-family="sans-serif" font-size="11" lengthAdjust="spacingAndGlyphs" textLength="73" x="723.5" y="321.6479">get_actions()</text><text fill="#000000" font-family="sans-serif" font-size="11" lengthAdjust="spacingAndGlyphs" textLength="80" x="723.5" y="334.4526">get_features()</text><text fill="#000000" font-family="sans-serif" font-size="11" lengthAdjust="spacingAndGlyphs" textLength="68" x="723.5" y="347.2573">get_status()</text><text fill="#000000" font-family="sans-serif" font-size="11" lengthAdjust="spacingAndGlyphs" textLength="57" x="723.5" y="360.062">populate()</text><text fill="#000000" font-family="sans-serif" font-size="11" lengthAdjust="spacingAndGlyphs" textLength="77" x="723.5" y="372.8667">populate_ipf()</text><text fill="#000000" font-family="sans-serif" font-size="11" lengthAdjust="spacingAndGlyphs" textLength="113" x="723.5" y="385.6714">sampling_from_ipf()</text><text fill="#000000" font-family="sans-serif" font-size="11" lengthAdjust="spacingAndGlyphs" textLength="79" x="723.5" y="398.4761">take_actions()</text><!--MD5=[8a9a4ef89bf67ce4e68f8c9631c8a484]
class individual_py--><rect fill="#8FBC8F" filter="url(#f1vhfzsjk39w5)" height="53.9375" id="individual_py" style="stroke: #A80036; stroke-width: 1.5;" width="110" x="755.5" y="21"/><ellipse cx="770.5" cy="39.9688" fill="#DA70D6" rx="11" ry="11" style="stroke: #A80036; stroke-width: 1.0;"/><path d="M766.2188,33.5781 L769.1406,33.5781 L770.6094,39.0156 L772.0781,33.5781 L775.0156,33.5781 L775.0156,45.9688 L772.9063,45.9688 L772.9063,36.0469 L771.5938,41.4688 L769.6563,41.4688 L768.3281,36.0469 L768.3281,45.9688 L766.2188,45.9688 L766.2188,33.5781 Z "/><text fill="#000000" font-family="sans-serif" font-size="12" font-style="italic" lengthAdjust="spacingAndGlyphs" textLength="60" x="793.5" y="37.1387">«module»</text><text fill="#000000" font-family="sans-serif" font-size="12" lengthAdjust="spacingAndGlyphs" textLength="78" x="784.5" y="51.1074">individual_py</text><line style="stroke: #A80036; stroke-width: 1.5;" x1="756.5" x2="864.5" y1="58.9375" y2="58.9375"/><line style="stroke: #A80036; stroke-width: 1.5;" x1="756.5" x2="864.5" y1="66.9375" y2="66.9375"/><!--MD5=[7e20e022571e30ec1001cf6eabd7f3e2]
class Model--><rect fill="#FEFECE" filter="url(#f1vhfzsjk39w5)" height="201.6563" id="Model" style="stroke: #A80036; stroke-width: 1.5;" width="115" x="244" y="184"/><ellipse cx="279.7" cy="200" fill="#ADD1B2" rx="11" ry="11" style="stroke: #A80036; stroke-width: 1.0;"/><path d="M282.6688,205.6406 Q282.0906,205.9375 281.45,206.0781 Q280.8094,206.2344 280.1063,206.2344 Q277.6063,206.2344 276.2781,204.5938 Q274.9656,202.9375 274.9656,199.8125 Q274.9656,196.6875 276.2781,195.0313 Q277.6063,193.375 280.1063,193.375 Q280.8094,193.375 281.45,193.5313 Q282.1063,193.6875 282.6688,193.9844 L282.6688,196.7031 Q282.0438,196.125 281.45,195.8594 Q280.8563,195.5781 280.2313,195.5781 Q278.8875,195.5781 278.2,196.6563 Q277.5125,197.7188 277.5125,199.8125 Q277.5125,201.9063 278.2,202.9844 Q278.8875,204.0469 280.2313,204.0469 Q280.8563,204.0469 281.45,203.7813 Q282.0438,203.5 282.6688,202.9219 L282.6688,205.6406 Z "/><text fill="#000000" font-family="sans-serif" font-size="12" lengthAdjust="spacingAndGlyphs" textLength="37" x="298.3" y="204.1543">Model</text><line style="stroke: #A80036; stroke-width: 1.5;" x1="245" x2="358" y1="216" y2="216"/><text fill="#000000" font-family="sans-serif" font-size="11" lengthAdjust="spacingAndGlyphs" textLength="39" x="250" y="230.2104">agents</text><text fill="#000000" font-family="sans-serif" font-size="11" lengthAdjust="spacingAndGlyphs" textLength="103" x="250" y="243.0151">cumulative_status</text><text fill="#000000" font-family="sans-serif" font-size="11" lengthAdjust="spacingAndGlyphs" textLength="72" x="250" y="255.8198">current_step</text><text fill="#000000" font-family="sans-serif" font-size="11" lengthAdjust="spacingAndGlyphs" textLength="65" x="250" y="268.6245">dir_params</text><text fill="#000000" font-family="sans-serif" font-size="11" lengthAdjust="spacingAndGlyphs" textLength="94" x="250" y="281.4292">lockdown_status</text><text fill="#000000" font-family="sans-serif" font-size="11" lengthAdjust="spacingAndGlyphs" textLength="75" x="250" y="294.2339">simulation_id</text><line style="stroke: #A80036; stroke-width: 1.5;" x1="245" x2="358" y1="300.8281" y2="300.8281"/><text fill="#000000" font-family="sans-serif" font-size="11" lengthAdjust="spacingAndGlyphs" textLength="49" x="250" y="315.0386">__init__()</text><text fill="#000000" font-family="sans-serif" font-size="11" lengthAdjust="spacingAndGlyphs" textLength="43" x="250" y="327.8433">report()</text><text fill="#000000" font-family="sans-serif" font-size="11" lengthAdjust="spacingAndGlyphs" textLength="27" x="250" y="340.6479">run()</text><text fill="#000000" font-family="sans-serif" font-size="11" lengthAdjust="spacingAndGlyphs" textLength="40" x="250" y="353.4526">setup()</text><text fill="#000000" font-family="sans-serif" font-size="11" lengthAdjust="spacingAndGlyphs" textLength="33" x="250" y="366.2573">step()</text><text fill="#000000" font-family="sans-serif" font-size="11" lengthAdjust="spacingAndGlyphs" textLength="47" x="250" y="379.062">update()</text><!--MD5=[ce0bdc9c9d7363fc59409c686ba93793]
class list--><rect fill="#FEFECE" filter="url(#f1vhfzsjk39w5)" height="48" id="list" style="stroke: #A80036; stroke-width: 1.5;" width="50" x="90.5" y="503"/><ellipse cx="105.5" cy="519" fill="#ADD1B2" rx="11" ry="11" style="stroke: #A80036; stroke-width: 1.0;"/><path d="M108.4688,524.6406 Q107.8906,524.9375 107.25,525.0781 Q106.6094,525.2344 105.9063,525.2344 Q103.4063,525.2344 102.0781,523.5938 Q100.7656,521.9375 100.7656,518.8125 Q100.7656,515.6875 102.0781,514.0313 Q103.4063,512.375 105.9063,512.375 Q106.6094,512.375 107.25,512.5313 Q107.9063,512.6875 108.4688,512.9844 L108.4688,515.7031 Q107.8438,515.125 107.25,514.8594 Q106.6563,514.5781 106.0313,514.5781 Q104.6875,514.5781 104,515.6563 Q103.3125,516.7188 103.3125,518.8125 Q103.3125,520.9063 104,521.9844 Q104.6875,523.0469 106.0313,523.0469 Q106.6563,523.0469 107.25,522.7813 Q107.8438,522.5 108.4688,521.9219 L108.4688,524.6406 Z "/><text fill="#000000" font-family="sans-serif" font-size="12" lengthAdjust="spacingAndGlyphs" textLength="18" x="119.5" y="523.1543">list</text><line style="stroke: #A80036; stroke-width: 1.5;" x1="91.5" x2="139.5" y1="535" y2="535"/><line style="stroke: #A80036; stroke-width: 1.5;" x1="91.5" x2="139.5" y1="543" y2="543"/><!--MD5=[ec9e782bad779c53622ae0851576a95f]
class dict--><rect fill="#FEFECE" filter="url(#f1vhfzsjk39w5)" height="48" id="dict" style="stroke: #A80036; stroke-width: 1.5;" width="55" x="274" y="503"/><ellipse cx="289" cy="519" fill="#ADD1B2" rx="11" ry="11" style="stroke: #A80036; stroke-width: 1.0;"/><path d="M291.9688,524.6406 Q291.3906,524.9375 290.75,525.0781 Q290.1094,525.2344 289.4063,525.2344 Q286.9063,525.2344 285.5781,523.5938 Q284.2656,521.9375 284.2656,518.8125 Q284.2656,515.6875 285.5781,514.0313 Q286.9063,512.375 289.4063,512.375 Q290.1094,512.375 290.75,512.5313 Q291.4063,512.6875 291.9688,512.9844 L291.9688,515.7031 Q291.3438,515.125 290.75,514.8594 Q290.1563,514.5781 289.5313,514.5781 Q288.1875,514.5781 287.5,515.6563 Q286.8125,516.7188 286.8125,518.8125 Q286.8125,520.9063 287.5,521.9844 Q288.1875,523.0469 289.5313,523.0469 Q290.1563,523.0469 290.75,522.7813 Q291.3438,522.5 291.9688,521.9219 L291.9688,524.6406 Z "/><text fill="#000000" font-family="sans-serif" font-size="12" lengthAdjust="spacingAndGlyphs" textLength="23" x="303" y="523.1543">dict</text><line style="stroke: #A80036; stroke-width: 1.5;" x1="275" x2="328" y1="535" y2="535"/><line style="stroke: #A80036; stroke-width: 1.5;" x1="275" x2="328" y1="543" y2="543"/><!--MD5=[b79685a4a12ba44cf8ecde1af12801e7]
class model_py--><rect fill="#8FBC8F" filter="url(#f1vhfzsjk39w5)" height="53.9375" id="model_py" style="stroke: #A80036; stroke-width: 1.5;" width="90" x="256.5" y="21"/><ellipse cx="271.5" cy="39.9688" fill="#DA70D6" rx="11" ry="11" style="stroke: #A80036; stroke-width: 1.0;"/><path d="M267.2188,33.5781 L270.1406,33.5781 L271.6094,39.0156 L273.0781,33.5781 L276.0156,33.5781 L276.0156,45.9688 L273.9063,45.9688 L273.9063,36.0469 L272.5938,41.4688 L270.6563,41.4688 L269.3281,36.0469 L269.3281,45.9688 L267.2188,45.9688 L267.2188,33.5781 Z "/><text fill="#000000" font-family="sans-serif" font-size="12" font-style="italic" lengthAdjust="spacingAndGlyphs" textLength="60" x="284.5" y="37.1387">«module»</text><text fill="#000000" font-family="sans-serif" font-size="12" lengthAdjust="spacingAndGlyphs" textLength="58" x="285.5" y="51.1074">model_py</text><line style="stroke: #A80036; stroke-width: 1.5;" x1="257.5" x2="345.5" y1="58.9375" y2="58.9375"/><line style="stroke: #A80036; stroke-width: 1.5;" x1="257.5" x2="345.5" y1="66.9375" y2="66.9375"/><!--MD5=[93e128c7c612f29f50796958e3ef4d51]
link hypothesis_py to Hypothesis--><path d="M107.5,88.07 C107.5,119.39 107.5,164.4 107.5,203.38 " fill="none" id="hypothesis_py-Hypothesis" style="stroke: #A80036; stroke-width: 1.0; stroke-dasharray: 7.0,7.0;"/><text fill="#000000" font-family="sans-serif" font-size="13" lengthAdjust="spacingAndGlyphs" textLength="54" x="108.5" y="131.0669">contains</text><polygon fill="#000000" points="131,140.1328,134,146.1328,137,140.1328,131,140.1328" style="stroke: #000000; stroke-width: 1.0;"/><!--MD5=[959b70aadfba4cbc33e74ab7aad0cf55]
link Individual to pd.Series--><path d="M877.2313,417.0747 C877.2313,417.0747 875.91,441.03 871.5,452 C865.11,467.9 853.48,482.31 841.46,494.1 " fill="none" id="Individual-pd.Series" style="stroke: #A80036; stroke-width: 1.0;"/><polygon fill="#A80036" points="831.83,502.97,841.1577,499.8087,835.5055,499.5802,835.734,493.928,831.83,502.97" style="stroke: #A80036; stroke-width: 1.0;"/><line style="stroke: #A80036; stroke-width: 1.0;" x1="835.5055" x2="841.395" y1="499.5802" y2="494.155"/><polygon fill="#A80036" points="876.19,405.12,872.7257,411.4445,877.2313,417.0747,880.6955,410.7503,876.19,405.12" style="stroke: #A80036; stroke-width: 1.0;"/><text fill="#000000" font-family="sans-serif" font-size="13" lengthAdjust="spacingAndGlyphs" textLength="46" x="876.5" y="448.0669">actions</text><!--MD5=[52a7e7d81ec3eae634c00c2501b4118e]
link Individual to pd.DataFrame--><path d="M798.28,405 C792.26,422.26 783.68,438.66 771.5,452 C763.92,460.3 757.11,454.16 747.5,460 C730.55,470.3 714.49,485.53 702.24,498.77 " fill="none" id="Individual-&gt;pd.DataFrame" style="stroke: #A80036; stroke-width: 1.0; stroke-dasharray: 7.0,7.0;"/><polygon fill="#A80036" points="698.56,502.8,707.5784,498.8416,701.9276,499.1042,701.6651,493.4534,698.56,502.8" style="stroke: #A80036; stroke-width: 1.0;"/><text fill="#000000" font-family="sans-serif" font-size="13" lengthAdjust="spacingAndGlyphs" textLength="58" x="783.5" y="448.0669">lockdown</text><!--MD5=[52a7e7d81ec3eae634c00c2501b4118e]
link Individual to pd.DataFrame--><path d="M717.33,365.19 C699.05,385.87 682.47,409.56 672.5,435 C664.68,454.96 667.08,479.23 671.08,497.69 " fill="none" id="Individual-&gt;pd.DataFrame-1" style="stroke: #A80036; stroke-width: 1.0; stroke-dasharray: 7.0,7.0;"/><polygon fill="#A80036" points="672.24,502.74,674.1055,493.0694,671.1115,497.869,666.312,494.875,672.24,502.74" style="stroke: #A80036; stroke-width: 1.0;"/><text fill="#000000" font-family="sans-serif" font-size="13" lengthAdjust="spacingAndGlyphs" textLength="89" x="673.5" y="448.0669">action_effects</text><!--MD5=[e8ab0ae35aac05ea99b07d53dddf04d8]
link individual_py to Individual--><path d="M810.5,75.05 C810.5,97.27 810.5,130.93 810.5,164.77 " fill="none" id="individual_py-Individual" style="stroke: #A80036; stroke-width: 1.0; stroke-dasharray: 7.0,7.0;"/><text fill="#000000" font-family="sans-serif" font-size="13" lengthAdjust="spacingAndGlyphs" textLength="54" x="811.5" y="131.0669">contains</text><polygon fill="#000000" points="834,140.1328,837,146.1328,840,140.1328,834,140.1328" style="stroke: #000000; stroke-width: 1.0;"/><!--MD5=[3d8e90d1819da45044700898ac62b392]
link Model to list--><path d="M239.3556,394.6857 C239.3556,394.6857 230.63,402.19 226.5,405 C167.81,445.03 114.77,380.26 69.5,435 C55.03,452.5 66.6,475.3 81.76,493.7 " fill="none" id="Model-list" style="stroke: #A80036; stroke-width: 1.0;"/><polygon fill="#A80036" points="90.4,503.41,87.4061,494.0272,87.0765,499.6745,81.4292,499.3449,90.4,503.41" style="stroke: #A80036; stroke-width: 1.0;"/><line style="stroke: #A80036; stroke-width: 1.0;" x1="87.0765" x2="81.76" y1="499.6745" y2="493.705"/><polygon fill="#A80036" points="247.9,386.26,240.8192,387.6247,239.3556,394.6857,246.4364,393.321,247.9,386.26" style="stroke: #A80036; stroke-width: 1.0;"/><text fill="#000000" font-family="sans-serif" font-size="13" lengthAdjust="spacingAndGlyphs" textLength="44" x="70.5" y="448.0669">agents</text><!--MD5=[3d8e90d1819da45044700898ac62b392]
link Model to list--><path d="M243.88,383.9 C238.32,391.28 232.5,398.41 226.5,405 C211.77,421.17 203.07,419.64 187.5,435 C167.63,454.6 148.18,479.63 134.52,498.48 " fill="none" id="Model-&gt;list" style="stroke: #A80036; stroke-width: 1.0; stroke-dasharray: 7.0,7.0;"/><polygon fill="#A80036" points="131.52,502.64,140.0309,497.6837,134.4464,498.5859,133.5442,493.0014,131.52,502.64" style="stroke: #A80036; stroke-width: 1.0;"/><text fill="#000000" font-family="sans-serif" font-size="13" lengthAdjust="spacingAndGlyphs" textLength="101" x="188.5" y="448.0669">lockdown_policy</text><!--MD5=[ed7783636853499e89f89b40052fb402]
link Model to dict--><path d="M298.305,398.0691 C298.305,398.0691 298.15,434.92 298.5,452 C298.75,464.2 299.22,477.52 299.72,489.45 " fill="none" id="Model-dict" style="stroke: #A80036; stroke-width: 1.0;"/><polygon fill="#A80036" points="300.31,502.68,303.9105,493.5129,300.0902,497.6848,295.9182,493.8645,300.31,502.68" style="stroke: #A80036; stroke-width: 1.0;"/><line style="stroke: #A80036; stroke-width: 1.0;" x1="300.0902" x2="299.735" y1="497.6848" y2="489.69"/><polygon fill="#A80036" points="298.45,386.07,294.3778,392.0212,298.305,398.0691,302.3772,392.1179,298.45,386.07" style="stroke: #A80036; stroke-width: 1.0;"/><text fill="#000000" font-family="sans-serif" font-size="13" lengthAdjust="spacingAndGlyphs" textLength="105" x="299.5" y="448.0669">lockdown_status</text><!--MD5=[ebffcf67c695f4725b055ee26230b4d3]
link Model to pd.DataFrame--><path d="M359.13,369.89 C382.93,399.34 412.66,430.42 445.5,452 C500.24,487.96 573.61,507.42 623.5,517.22 " fill="none" id="Model-&gt;pd.DataFrame" style="stroke: #A80036; stroke-width: 1.0; stroke-dasharray: 7.0,7.0;"/><polygon fill="#A80036" points="628.56,518.2,620.4749,512.5758,623.6496,517.2579,618.9675,520.4325,628.56,518.2" style="stroke: #A80036; stroke-width: 1.0;"/><text fill="#000000" font-family="sans-serif" font-size="13" lengthAdjust="spacingAndGlyphs" textLength="58" x="446.5" y="448.0669">lockdown</text><!--MD5=[ebffcf67c695f4725b055ee26230b4d3]
link Model to pd.DataFrame--><path d="M359.32,322.71 C436.53,371.73 571.36,457.34 638.74,500.12 " fill="none" id="Model-&gt;pd.DataFrame-1" style="stroke: #A80036; stroke-width: 1.0; stroke-dasharray: 7.0,7.0;"/><polygon fill="#A80036" points="643.08,502.88,637.6399,494.6699,638.8635,500.1928,633.3405,501.4164,643.08,502.88" style="stroke: #A80036; stroke-width: 1.0;"/><text fill="#000000" font-family="sans-serif" font-size="13" lengthAdjust="spacingAndGlyphs" textLength="89" x="558.5" y="448.0669">action_effects</text><!--MD5=[2ab219b8cc672623079eb9cfd94ca050]
link model_py to Model--><path d="M301.5,75.05 C301.5,101.46 301.5,144 301.5,183.82 " fill="none" id="model_py-Model" style="stroke: #A80036; stroke-width: 1.0; stroke-dasharray: 7.0,7.0;"/><text fill="#000000" font-family="sans-serif" font-size="13" lengthAdjust="spacingAndGlyphs" textLength="54" x="302.5" y="131.0669">contains</text><polygon fill="#000000" points="325,140.1328,328,146.1328,331,140.1328,325,140.1328" style="stroke: #000000; stroke-width: 1.0;"/><text fill="#888888" font-family="sans-serif" font-size="10" lengthAdjust="spacingAndGlyphs" textLength="191" x="375.5" y="602.2822">Generated by GitUML www.gituml.com</text><!--MD5=[c2dbee4c71d420ac4dc11043888d66af]
@startuml
class Hypothesis {
    _required_params
    all_possible_actions
    all_possible_features
    individual_status
    lockdown_policies
    _get_one_hot_encoded_features()
    create_empty_hypotheses()
    read_hypotheses()
    validate_param_file()
}

class hypothesis_py <<module>> << (M,orchid) >> #DarkSeaGreen {
    PARAMS_INDIVIDUAL
    PARAMS_IPF_WEIGHTS
}

hypothesis_py .. Hypothesis : contains >
class Individual {
    _features
    _status
    actions
    chosen_actions
    dir_params
    id
    __init__()
    choose_actions_on_lockdown()
    get_actions()
    get_features()
    get_status()
    populate()
    populate_ipf()
    sampling_from_ipf()
    take_actions()
}

Individual *- -> pd.Series : actions
Individual ..> pd.DataFrame : lockdown
Individual ..> pd.DataFrame : action_effects
class individual_py <<module>> << (M,orchid) >> #DarkSeaGreen {
}

individual_py .. Individual : contains >
class Model {
    agents
    cumulative_status
    current_step
    dir_params
    lockdown_status
    simulation_id
    __init__()
    report()
    run()
    setup()
    step()
    update()
}

Model *- -> list : agents
Model *- -> dict : lockdown_status
Model ..> pd.DataFrame : lockdown
Model ..> pd.DataFrame : action_effects
Model ..> list : lockdown_policy
class model_py <<module>> << (M,orchid) >> #DarkSeaGreen {
}

model_py .. Model : contains >
center footer Generated by GitUML www.gituml.com
@enduml

PlantUML version 1.2020.08(Sun Apr 26 14:08:22 UTC 2020)
(GPL source distribution)
Java Runtime: OpenJDK Runtime Environment
JVM: OpenJDK 64-Bit Server VM
Java Version: 1.8.0_382-heroku-b05
Operating System: Linux
Default Encoding: UTF-8
Language: en
Country: US
--></g></svg>